<?xml version="1.0" encoding="UTF-8" standalone="no"?>
<!DOCTYPE svg PUBLIC "-//W3C//DTD SVG 1.1//EN" "http://www.w3.org/Graphics/SVG/1.1/DTD/svg11.dtd">
<svg width="100%" height="100%" viewBox="0 0 78 90" version="1.1" xmlns="http://www.w3.org/2000/svg" xmlns:xlink="http://www.w3.org/1999/xlink" xml:space="preserve" xmlns:serif="http://www.serif.com/" style="fill-rule:evenodd;clip-rule:evenodd;stroke-linejoin:round;stroke-miterlimit:2;">
    <g transform="matrix(1,0,0,1,-14.5839,-18.1162)">
        <g>
            <path d="M53.555,18.116L92.526,40.616L92.526,85.616L53.555,108.116L14.584,85.616L14.584,40.616L53.555,18.116ZM40.4,59.388L35.137,43.189L54.158,29.369L73.179,43.189L67.979,59.194C70.382,57.43 73.222,55.473 74.866,54.486C74.81,49.637 75.453,36.498 75.948,33.045C76.064,32.242 78.05,32.335 78.089,33.146C78.269,36.895 77.565,51.824 77.032,55.54C77.01,55.698 76.914,55.822 76.774,55.912C75.107,57.437 69.616,61.388 66.664,63.24L65.914,65.55L61.363,65.55L62.215,68.173C67.94,65.58 75.756,62.24 79.244,60.945C79.964,56.718 82.611,45.711 83.628,42.866C83.866,42.2 85.8,42.661 85.712,43.363C85.315,46.54 82.42,58.728 81.265,62.135C81.25,62.218 81.223,62.295 81.185,62.365C81.157,62.43 81.113,62.484 81.056,62.527C81.02,62.559 80.98,62.587 80.935,62.611C78.284,64.034 69.843,67.788 63.549,70.421C70.233,69.576 78.896,68.666 81.8,68.575C81.842,68.574 81.883,68.576 81.922,68.583C82.526,68.584 83.221,68.881 83.195,69.346C82.994,72.929 80.778,87.04 79.871,90.512C79.675,91.263 77.711,90.954 77.754,90.18C77.928,87.08 79.61,76.104 80.647,70.949C76.957,71.544 69.629,72.431 63.792,73.026L64.054,73.83C67.208,74.156 73.171,75.204 74.827,75.783C74.842,75.789 74.856,75.796 74.87,75.806C75.492,75.882 76.341,76.236 76.305,76.54C76.06,78.629 73.71,86.579 72.78,88.466C72.579,88.874 70.672,88.31 70.725,87.858C70.918,86.214 72.415,80.938 73.497,77.846C71.438,77.671 67.641,77.07 64.925,76.513L65.832,79.303L53.944,87.941L42.056,79.303L42.891,76.732C40.222,77.261 36.732,77.806 34.788,77.971C35.87,81.063 37.367,86.339 37.56,87.983C37.613,88.435 35.706,88.999 35.505,88.591C34.575,86.704 32.225,78.754 31.98,76.665C31.944,76.361 32.794,76.007 33.416,75.931C33.429,75.921 33.443,75.914 33.459,75.908C35.038,75.356 40.536,74.377 43.777,74.005L44.069,73.108C38.305,72.514 31.239,71.655 27.638,71.074C28.676,76.229 30.357,87.205 30.531,90.305C30.575,91.079 28.61,91.388 28.414,90.637C27.507,87.165 25.291,73.054 25.09,69.471C25.064,69.006 25.76,68.71 26.363,68.708C26.402,68.701 26.443,68.699 26.485,68.7C29.389,68.791 38.053,69.701 44.736,70.546C38.442,67.913 30.001,64.159 27.351,62.736C27.306,62.712 27.265,62.684 27.23,62.652C27.172,62.609 27.128,62.555 27.101,62.49C27.062,62.42 27.036,62.343 27.02,62.26C25.865,58.853 22.97,46.665 22.573,43.488C22.485,42.786 24.42,42.325 24.658,42.991C25.674,45.836 28.321,56.843 29.041,61.07C32.452,62.337 40.004,65.559 45.688,68.125L46.525,65.55L42.402,65.55L41.711,63.421C38.782,61.594 33.195,57.578 31.511,56.037C31.372,55.947 31.276,55.823 31.253,55.665C30.72,51.949 30.016,37.02 30.197,33.271C30.236,32.46 32.222,32.367 32.337,33.17C32.832,36.623 33.476,49.762 33.419,54.611C35.085,55.611 37.978,57.606 40.4,59.388Z" style="fill:white;"/>
            <g transform="matrix(2.59594,0,0,2.59594,-96.8679,-71.9221)">
                <text x="54.439px" y="51.07px" style="font-family:'TrebuchetMS', 'Trebuchet MS', sans-serif;font-size:12px;fill:white;">N</text>
            </g>
        </g>
    </g>
</svg>
